<svg width="256" height="256" viewBox="0 0 256 256" fill="none" xmlns="http://www.w3.org/2000/svg">
<path d="M235 127C235 186.094 187.094 234 128 234C68.9055 234 21 186.094 21 127C21 67.9055 68.9055 20 128 20C187.094 20 235 67.9055 235 127Z" fill="#011627"/>
<path fill-rule="evenodd" clip-rule="evenodd" d="M128 226C182.676 226 227 181.676 227 127C227 72.3238 182.676 28 128 28C73.3238 28 29 72.3238 29 127C29 181.676 73.3238 226 128 226ZM128 234C187.094 234 235 186.094 235 127C235 67.9055 187.094 20 128 20C68.9055 20 21 67.9055 21 127C21 186.094 68.9055 234 128 234Z" fill="url(#paint0_linear_3086_37217)"/>
<path d="M82.9836 153.973L52.7185 157.449L46.0866 99.7005L23.6104 102.282L32.5551 180.17L85.2964 174.113L82.9836 153.973Z" fill="#FFDF37"/>
<path d="M131.048 134.812L150.993 167.132L171.912 164.73L186.937 83.5251L163.571 86.2085L155.85 135.797L127.182 89.3728L125.513 89.5644L107.782 141.317L89.3545 94.7315L65.3205 97.4916L97.8068 173.24L118.837 170.825L131.048 134.812Z" fill="#FFDF37"/>
<path d="M196.906 141.905C192.122 142.454 187.492 141.408 181.867 138.559L181.67 138.807L186.828 159.184C192.488 161.352 198.44 162.134 205.005 161.38C221.918 159.438 231.227 148.222 229.336 131.755L223.318 79.3471L200.841 81.9283L206.336 129.774C207.115 136.561 203.471 141.151 196.906 141.905Z" fill="#FFDF37"/>
<path fill-rule="evenodd" clip-rule="evenodd" d="M97.8067 173.24L65.3204 97.4916L89.3545 94.7315L107.782 141.317L125.513 89.5644L127.182 89.3728L155.85 135.797L163.571 86.2085L186.937 83.5251L171.912 164.73L150.993 167.132L131.048 134.812L118.837 170.825L97.8067 173.24ZM92.5812 188.363C90.9211 189.212 89.0834 189.783 87.1219 190.008L34.3805 196.065C25.6017 197.073 17.6677 190.774 16.6595 181.995L7.71481 104.107C6.70664 95.3282 13.006 87.3943 21.7849 86.3861L44.2612 83.8049C47.8757 83.3898 51.347 84.2135 54.2506 85.939C56.7461 83.548 59.9816 81.9996 63.495 81.5961L87.529 78.836C94.7203 78.0102 101.57 82.1153 104.233 88.8463L106.705 95.096L110.377 84.3786C112.377 78.5404 117.557 74.373 123.688 73.6689L125.357 73.4772C131.52 72.7695 137.536 75.688 140.796 80.9662L146.704 90.5347L147.761 83.747C148.869 76.6326 154.592 71.1344 161.745 70.313L185.112 67.6296C187.552 67.3493 189.988 67.6376 192.243 68.4306C194.227 67.1651 196.521 66.3193 199.016 66.0328L221.492 63.4516C230.271 62.4434 238.205 68.7428 239.213 77.5217L245.232 129.929C246.572 141.605 244.051 153.107 236.572 162.187C229.155 171.191 218.404 175.946 206.831 177.276C198.861 178.191 191.286 177.465 184.047 175.157C181.483 178.14 177.842 180.154 173.737 180.625L152.819 183.027C146.654 183.735 140.636 180.815 137.377 175.535L135.284 172.143L133.989 175.963C132.002 181.825 126.811 186.014 120.662 186.72L99.6322 189.135C97.1948 189.415 94.7938 189.129 92.5812 188.363ZM85.2964 174.113L82.9836 153.973L52.7185 157.449L46.0866 99.7005L23.6103 102.282L32.5551 180.17L85.2964 174.113ZM189.065 159.963C194.056 161.53 199.299 162.035 205.005 161.38C221.918 159.438 231.227 148.222 229.336 131.755L223.318 79.3471L200.841 81.9283L206.336 129.774C207.034 135.852 204.185 140.168 198.867 141.545C198.247 141.705 197.593 141.826 196.906 141.905C195.401 142.078 193.91 142.093 192.4 141.943C189.184 141.625 185.876 140.561 182.129 138.691C182.042 138.647 181.954 138.603 181.866 138.559L181.669 138.807L186.828 159.184C187.568 159.467 188.314 159.727 189.065 159.963Z" fill="#011627"/>
<defs>
<linearGradient id="paint0_linear_3086_37217" x1="43.682" y1="-22.2056" x2="240.45" y2="26.41" gradientUnits="userSpaceOnUse">
<stop stop-color="#FF87D4"/>
<stop offset="0.473958" stop-color="#FFE742"/>
<stop offset="1" stop-color="#87FFFB"/>
</linearGradient>
</defs>
</svg>
